<svg width="106" height="37" viewBox="0 0 106 37" fill="none" xmlns="http://www.w3.org/2000/svg">
<path d="M4.27307 8.17022C4.27307 7.33014 5.07367 6.17436 6.34394 5.53663C7.35614 5.02845 8.32123 4.14821 8.32123 3.01561C8.32123 1.883 7.39155 0.937224 6.28353 1.17192C2.11904 2.05401 0 5.57169 0 8.17022V22.4701C0 25.1918 2.8213 28.3901 6.34774 29.3072C7.41425 29.5846 8.32123 28.6713 8.32123 27.5693C8.32123 26.4673 7.38659 25.5773 6.41262 25.0618C5.19322 24.4163 4.27336 23.2921 4.27307 22.4701C4.27263 21.2507 4.27307 9.38958 4.27307 8.17022Z" fill="#0047FF"/>
<path d="M15.9672 22.3591C15.9672 23.1992 15.1666 24.3549 13.8963 24.9927C12.8841 25.5008 11.919 26.3811 11.919 27.5137C11.919 28.6463 12.8487 29.5921 13.9567 29.3574C18.1212 28.4753 20.2402 24.9576 20.2402 22.3591L20.2402 8.05918C20.2402 5.33755 17.4189 2.13919 13.8925 1.22208C12.826 0.944717 11.919 1.858 11.919 2.95999C11.919 4.06198 12.8536 4.95199 13.8276 5.46753C15.047 6.11299 15.9669 7.2372 15.9672 8.05918C15.9676 9.27855 15.9672 21.1397 15.9672 22.3591Z" fill="#E50E8A"/>
<path d="M52.6758 26.7916L38.0667 1.85475C37.7438 1.30354 37.1528 0.964844 36.514 0.964844C35.126 0.964844 34.2605 2.46979 34.9586 3.66949L49.4945 28.6491C49.8243 29.2159 50.4307 29.5646 51.0865 29.5646C52.5096 29.5646 53.3951 28.0196 52.6758 26.7916Z" fill="#FF000A"/>
<path d="M34.9786 26.6812L37.9859 21.4527C38.6907 20.2274 40.4565 20.2216 41.1694 21.4421C41.5009 22.0097 41.5044 22.711 41.1787 23.2818L38.1894 28.5206C37.8602 29.0976 37.2468 29.4538 36.5824 29.4538C35.1595 29.4538 34.2692 27.9146 34.9786 26.6812Z" fill="#9BFF00"/>
<path d="M46.3422 7.08572L49.498 1.84619C49.8274 1.29927 50.4192 0.964844 51.0577 0.964844C52.4544 0.964844 53.3311 2.47263 52.64 3.68644L49.6139 9.0019C48.8953 10.2641 47.0824 10.2827 46.3382 9.03539C45.9797 8.43455 45.9812 7.68508 46.3422 7.08572Z" fill="#9BFF00"/>
<rect x="67.4434" y="0.964844" width="4.49796" height="28.5998" rx="2.24898" fill="#8C00FF"/>
<rect x="93.1826" y="8.94629" width="4.49796" height="20.6185" rx="2.24898" fill="#00B3FF"/>
<rect x="85.085" y="0.964844" width="20.9155" height="4.43408" rx="2.21704" fill="#FF8300"/>
<path d="M96.4819 35.9597C96.2538 35.9597 96.038 35.9287 95.8345 35.8665C95.6309 35.8009 95.4713 35.7198 95.3555 35.6232L95.5239 35.3332C95.6362 35.416 95.7801 35.4885 95.9555 35.5507C96.131 35.6094 96.3152 35.6387 96.5082 35.6387C96.7714 35.6387 96.9609 35.599 97.0767 35.5196C97.1925 35.4368 97.2504 35.328 97.2504 35.1934C97.2504 35.0933 97.217 35.0156 97.1504 34.9604C97.0872 34.9017 97.003 34.8585 96.8977 34.8309C96.7924 34.7998 96.6749 34.774 96.545 34.7532C96.4152 34.7325 96.2854 34.7084 96.1555 34.6807C96.0292 34.6531 95.9134 34.6134 95.8081 34.5617C95.7029 34.5064 95.6169 34.4322 95.5502 34.339C95.4871 34.2458 95.4555 34.1215 95.4555 33.9662C95.4555 33.8177 95.4976 33.6848 95.5818 33.5675C95.666 33.4501 95.7888 33.3586 95.9503 33.293C96.1152 33.224 96.3152 33.1895 96.5503 33.1895C96.7293 33.1895 96.9082 33.2136 97.0872 33.2619C97.2662 33.3068 97.4135 33.3672 97.5293 33.4432L97.3662 33.7383C97.2433 33.6555 97.1118 33.5968 96.9714 33.5623C96.831 33.5243 96.6907 33.5053 96.5503 33.5053C96.3012 33.5053 96.1169 33.5485 95.9976 33.6348C95.8818 33.7176 95.8239 33.8246 95.8239 33.9558C95.8239 34.0594 95.8555 34.1405 95.9187 34.1992C95.9853 34.2579 96.0713 34.3045 96.1766 34.339C96.2854 34.3701 96.4029 34.396 96.5293 34.4167C96.6591 34.4374 96.7872 34.4633 96.9135 34.4943C97.0433 34.522 97.1609 34.5617 97.2662 34.6134C97.3749 34.6618 97.4609 34.7325 97.5241 34.8257C97.5907 34.9155 97.6241 35.0346 97.6241 35.183C97.6241 35.3418 97.5785 35.4799 97.4872 35.5973C97.3995 35.7112 97.2697 35.8009 97.0977 35.8665C96.9293 35.9287 96.724 35.9597 96.4819 35.9597Z" fill="#EBEBEB"/>
<path d="M92.4215 35.9597C92.1338 35.9597 91.8811 35.9011 91.6635 35.7837C91.446 35.6629 91.2758 35.4989 91.153 35.2918C91.0302 35.0812 90.9688 34.8413 90.9688 34.572C90.9688 34.3027 91.0266 34.0646 91.1424 33.8574C91.2618 33.6503 91.4232 33.4881 91.6267 33.3707C91.8337 33.2499 92.0653 33.1895 92.3215 33.1895C92.5812 33.1895 92.811 33.2481 93.011 33.3655C93.2146 33.4794 93.3742 33.6417 93.49 33.8523C93.6058 34.0594 93.6637 34.2993 93.6637 34.572C93.6637 34.5893 93.662 34.6083 93.6585 34.629C93.6585 34.6462 93.6585 34.6652 93.6585 34.6859H91.253V34.4115H93.4584L93.3111 34.5202C93.3111 34.3235 93.2672 34.1491 93.1795 33.9972C93.0952 33.8419 92.9794 33.7211 92.8321 33.6348C92.6847 33.5485 92.5145 33.5053 92.3215 33.5053C92.132 33.5053 91.9618 33.5485 91.8109 33.6348C91.66 33.7211 91.5425 33.8419 91.4583 33.9972C91.374 34.1526 91.3319 34.3304 91.3319 34.5306V34.5875C91.3319 34.7947 91.3776 34.9776 91.4688 35.1364C91.5635 35.2918 91.6934 35.4143 91.8583 35.5041C92.0267 35.5904 92.218 35.6335 92.432 35.6335C92.6005 35.6335 92.7566 35.6042 92.9005 35.5455C93.0479 35.4868 93.1742 35.3971 93.2795 35.2762L93.49 35.5144C93.3672 35.6594 93.2128 35.7699 93.0268 35.8458C92.8443 35.9218 92.6426 35.9597 92.4215 35.9597Z" fill="#EBEBEB"/>
<path d="M88.5177 35.934V33.2154H88.891V35.934H88.5177ZM88.707 32.6148C88.6299 32.6148 88.565 32.5889 88.5125 32.5371C88.4599 32.4853 88.4336 32.4232 88.4336 32.3507C88.4336 32.2782 88.4599 32.2178 88.5125 32.1695C88.565 32.1177 88.6299 32.0918 88.707 32.0918C88.7841 32.0918 88.849 32.116 88.9015 32.1643C88.9541 32.2126 88.9804 32.273 88.9804 32.3455C88.9804 32.4215 88.9541 32.4853 88.9015 32.5371C88.8525 32.5889 88.7876 32.6148 88.707 32.6148Z" fill="#EBEBEB"/>
<path d="M84.7783 36.9643C84.5257 36.9643 84.2836 36.9281 84.052 36.8556C83.8204 36.7831 83.6326 36.6795 83.4887 36.5449L83.6782 36.2653C83.8081 36.3792 83.9677 36.4689 84.1572 36.5345C84.3502 36.6036 84.5538 36.6381 84.7678 36.6381C85.1187 36.6381 85.3766 36.557 85.5416 36.3947C85.7065 36.2359 85.7889 35.9874 85.7889 35.6491V34.9707L85.8416 34.5047L85.8047 34.0387V33.2153H86.1627V35.6025C86.1627 36.0719 86.0451 36.4154 85.81 36.6329C85.5784 36.8538 85.2345 36.9643 84.7783 36.9643ZM84.7099 35.8303C84.4467 35.8303 84.2099 35.7751 83.9993 35.6646C83.7888 35.5507 83.6221 35.3936 83.4993 35.1934C83.38 34.9932 83.3203 34.7636 83.3203 34.5047C83.3203 34.2458 83.38 34.018 83.4993 33.8212C83.6221 33.621 83.7888 33.4656 83.9993 33.3552C84.2099 33.2447 84.4467 33.1895 84.7099 33.1895C84.9555 33.1895 85.1766 33.2395 85.3731 33.3396C85.5696 33.4397 85.7258 33.5882 85.8416 33.7849C85.9574 33.9817 86.0153 34.2216 86.0153 34.5047C86.0153 34.7878 85.9574 35.0277 85.8416 35.2245C85.7258 35.4212 85.5696 35.5714 85.3731 35.6749C85.1766 35.7785 84.9555 35.8303 84.7099 35.8303ZM84.7467 35.5041C84.9503 35.5041 85.131 35.4626 85.2889 35.3798C85.4468 35.2935 85.5714 35.1761 85.6626 35.0277C85.7539 34.8758 85.7995 34.7015 85.7995 34.5047C85.7995 34.3079 85.7539 34.1353 85.6626 33.9869C85.5714 33.8384 85.4468 33.7228 85.2889 33.6399C85.131 33.5536 84.9503 33.5105 84.7467 33.5105C84.5467 33.5105 84.366 33.5536 84.2046 33.6399C84.0467 33.7228 83.9221 33.8384 83.8309 33.9869C83.7432 34.1353 83.6993 34.3079 83.6993 34.5047C83.6993 34.7015 83.7432 34.8758 83.8309 35.0277C83.9221 35.1761 84.0467 35.2935 84.2046 35.3798C84.366 35.4626 84.5467 35.5041 84.7467 35.5041Z" fill="#EBEBEB"/>
<path d="M80.1085 35.9597C79.8418 35.9597 79.6014 35.9011 79.3874 35.7837C79.1768 35.6629 79.0102 35.4989 78.8874 35.2918C78.7645 35.0812 78.7031 34.8413 78.7031 34.572C78.7031 34.2993 78.7645 34.0594 78.8874 33.8523C79.0102 33.6451 79.1768 33.4829 79.3874 33.3655C79.5979 33.2481 79.8383 33.1895 80.1085 33.1895C80.3822 33.1895 80.6243 33.2481 80.8349 33.3655C81.0489 33.4829 81.2156 33.6451 81.3349 33.8523C81.4577 34.0594 81.5192 34.2993 81.5192 34.572C81.5192 34.8413 81.4577 35.0812 81.3349 35.2918C81.2156 35.4989 81.0489 35.6629 80.8349 35.7837C80.6208 35.9011 80.3787 35.9597 80.1085 35.9597ZM80.1085 35.6335C80.3085 35.6335 80.4857 35.5904 80.6401 35.5041C80.7945 35.4143 80.9156 35.29 81.0033 35.1312C81.0946 34.969 81.1402 34.7826 81.1402 34.572C81.1402 34.358 81.0946 34.1716 81.0033 34.0128C80.9156 33.854 80.7945 33.7314 80.6401 33.6451C80.4857 33.5554 80.3103 33.5105 80.1138 33.5105C79.9173 33.5105 79.7418 33.5554 79.5874 33.6451C79.433 33.7314 79.3102 33.854 79.219 34.0128C79.1277 34.1716 79.0821 34.358 79.0821 34.572C79.0821 34.7826 79.1277 34.969 79.219 35.1312C79.3102 35.29 79.433 35.4143 79.5874 35.5041C79.7418 35.5904 79.9155 35.6335 80.1085 35.6335Z" fill="#EBEBEB"/>
<path d="M76.2529 35.934V32.0918H76.6262V35.934H76.2529Z" fill="#EBEBEB"/>
<path d="M72.7638 35.9597C72.4971 35.9597 72.2567 35.9011 72.0427 35.7837C71.8321 35.6629 71.6654 35.4989 71.5426 35.2918C71.4198 35.0812 71.3584 34.8413 71.3584 34.572C71.3584 34.2993 71.4198 34.0594 71.5426 33.8523C71.6654 33.6451 71.8321 33.4829 72.0427 33.3655C72.2532 33.2481 72.4936 33.1895 72.7638 33.1895C73.0375 33.1895 73.2796 33.2481 73.4902 33.3655C73.7042 33.4829 73.8709 33.6451 73.9902 33.8523C74.113 34.0594 74.1744 34.2993 74.1744 34.572C74.1744 34.8413 74.113 35.0812 73.9902 35.2918C73.8709 35.4989 73.7042 35.6629 73.4902 35.7837C73.2761 35.9011 73.034 35.9597 72.7638 35.9597ZM72.7638 35.6335C72.9638 35.6335 73.141 35.5904 73.2954 35.5041C73.4498 35.4143 73.5709 35.29 73.6586 35.1312C73.7498 34.969 73.7954 34.7826 73.7954 34.572C73.7954 34.358 73.7498 34.1716 73.6586 34.0128C73.5709 33.854 73.4498 33.7314 73.2954 33.6451C73.141 33.5554 72.9656 33.5105 72.769 33.5105C72.5725 33.5105 72.3971 33.5554 72.2427 33.6451C72.0883 33.7314 71.9655 33.854 71.8742 34.0128C71.783 34.1716 71.7374 34.358 71.7374 34.572C71.7374 34.7826 71.783 34.969 71.8742 35.1312C71.9655 35.29 72.0883 35.4143 72.2427 35.5041C72.3971 35.5904 72.5708 35.6335 72.7638 35.6335Z" fill="#EBEBEB"/>
<path d="M68.1753 33.1895C68.3999 33.1895 68.5964 33.2326 68.7648 33.3189C68.9368 33.4018 69.0701 33.5295 69.1649 33.7021C69.2631 33.8747 69.3122 34.0922 69.3122 34.3545V35.9339H68.9385V34.3908C68.9385 34.1043 68.8648 33.8885 68.7174 33.7435C68.5736 33.5951 68.37 33.5209 68.1069 33.5209C67.9104 33.5209 67.7384 33.5606 67.591 33.6399C67.4472 33.7159 67.3349 33.8281 67.2542 33.9765C67.177 34.1215 67.1384 34.2976 67.1384 34.5047V35.9339H66.7646V33.2153H67.1226V33.961L67.0647 33.8212C67.1524 33.6244 67.2928 33.4708 67.4858 33.3603C67.6788 33.2464 67.9086 33.1895 68.1753 33.1895Z" fill="#EBEBEB"/>
<path d="M63.3032 33.1896C63.5278 33.1896 63.7243 33.2327 63.8927 33.319C64.0647 33.4019 64.198 33.5296 64.2928 33.7022C64.391 33.8748 64.4402 34.0923 64.4402 34.3546V35.934H64.0664V34.3909C64.0664 34.1044 63.9928 33.8886 63.8454 33.7436C63.7015 33.5952 63.498 33.521 63.2348 33.521C63.0383 33.521 62.8663 33.5607 62.719 33.6401C62.5751 33.716 62.4628 33.8282 62.3821 33.9766C62.3049 34.1216 62.2663 34.2977 62.2663 34.5048V35.934H61.8926V32.0918H62.2663V33.9611L62.1926 33.8213C62.2803 33.6245 62.4207 33.4709 62.6137 33.3604C62.8067 33.2465 63.0365 33.1896 63.3032 33.1896Z" fill="#EBEBEB"/>
<path d="M58.7985 35.9597C58.5248 35.9597 58.2792 35.9011 58.0616 35.7837C57.8475 35.6629 57.6791 35.4989 57.5563 35.2918C57.4335 35.0812 57.3721 34.8413 57.3721 34.572C57.3721 34.2993 57.4335 34.0594 57.5563 33.8523C57.6791 33.6451 57.8475 33.4829 58.0616 33.3655C58.2792 33.2481 58.5248 33.1895 58.7985 33.1895C59.0336 33.1895 59.2459 33.2343 59.4354 33.3241C59.6249 33.4138 59.774 33.5485 59.8828 33.728L59.6038 33.9144C59.5091 33.7763 59.3915 33.6745 59.2512 33.6089C59.1108 33.5433 58.9582 33.5105 58.7932 33.5105C58.5967 33.5105 58.4195 33.5554 58.2616 33.6451C58.1037 33.7314 57.9791 33.854 57.8879 34.0128C57.7967 34.1716 57.751 34.358 57.751 34.572C57.751 34.786 57.7967 34.9725 57.8879 35.1312C57.9791 35.29 58.1037 35.4143 58.2616 35.5041C58.4195 35.5904 58.5967 35.6335 58.7932 35.6335C58.9582 35.6335 59.1108 35.6007 59.2512 35.5351C59.3915 35.4695 59.5091 35.3694 59.6038 35.2348L59.8828 35.4212C59.774 35.5973 59.6249 35.7319 59.4354 35.8251C59.2459 35.9149 59.0336 35.9597 58.7985 35.9597Z" fill="#EBEBEB"/>
<path d="M54.3326 35.9597C54.0449 35.9597 53.7922 35.9011 53.5747 35.7837C53.3571 35.6629 53.1869 35.4989 53.0641 35.2918C52.9413 35.0812 52.8799 34.8413 52.8799 34.572C52.8799 34.3027 52.9378 34.0646 53.0536 33.8574C53.1729 33.6503 53.3343 33.4881 53.5378 33.3707C53.7449 33.2499 53.9765 33.1895 54.2326 33.1895C54.4923 33.1895 54.7221 33.2481 54.9222 33.3655C55.1257 33.4794 55.2854 33.6417 55.4012 33.8523C55.517 34.0594 55.5748 34.2993 55.5748 34.572C55.5748 34.5893 55.5731 34.6083 55.5696 34.629C55.5696 34.6462 55.5696 34.6652 55.5696 34.6859H53.1641V34.4115H55.3696L55.2222 34.5202C55.2222 34.3235 55.1783 34.1491 55.0906 33.9972C55.0064 33.8419 54.8906 33.7211 54.7432 33.6348C54.5958 33.5485 54.4256 33.5053 54.2326 33.5053C54.0431 33.5053 53.8729 33.5485 53.7221 33.6348C53.5712 33.7211 53.4536 33.8419 53.3694 33.9972C53.2852 34.1526 53.2431 34.3304 53.2431 34.5306V34.5875C53.2431 34.7947 53.2887 34.9776 53.3799 35.1364C53.4747 35.2918 53.6045 35.4143 53.7694 35.5041C53.9379 35.5904 54.1291 35.6335 54.3432 35.6335C54.5116 35.6335 54.6678 35.6042 54.8116 35.5455C54.959 35.4868 55.0853 35.3971 55.1906 35.2762L55.4012 35.5144C55.2783 35.6594 55.1239 35.7699 54.938 35.8458C54.7555 35.9218 54.5537 35.9597 54.3326 35.9597Z" fill="#EBEBEB"/>
<path d="M49.9023 35.9342V32.641H48.6074V32.3096H51.5866V32.641H50.2918V35.9342H49.9023Z" fill="#EBEBEB"/>
<path d="M43.6855 35.934V32.0918H44.0588V35.934H43.6855Z" fill="#EBEBEB"/>
<path d="M40.9956 35.9339V35.3332L40.9798 35.2348V34.2303C40.9798 33.999 40.9131 33.8212 40.7797 33.6969C40.6499 33.5726 40.4552 33.5105 40.1955 33.5105C40.0165 33.5105 39.8463 33.5398 39.6849 33.5985C39.5235 33.6572 39.3866 33.7349 39.2744 33.8315L39.1059 33.5571C39.2463 33.4397 39.4147 33.35 39.6112 33.2878C39.8077 33.2222 40.0148 33.1895 40.2323 33.1895C40.5903 33.1895 40.8657 33.2775 41.0587 33.4535C41.2552 33.6261 41.3535 33.8902 41.3535 34.2458V35.9339H40.9956ZM40.0428 35.9597C39.8358 35.9597 39.6551 35.9269 39.5007 35.8614C39.3498 35.7923 39.234 35.6991 39.1533 35.5817C39.0726 35.4609 39.0322 35.3228 39.0322 35.1675C39.0322 35.026 39.0656 34.8982 39.1322 34.7843C39.2024 34.6669 39.3147 34.5737 39.4691 34.5047C39.627 34.4322 39.8376 34.396 40.1007 34.396H41.0534V34.6704H40.1113C39.8446 34.6704 39.6586 34.717 39.5533 34.8102C39.4516 34.9034 39.4007 35.0191 39.4007 35.1571C39.4007 35.3125 39.4621 35.4368 39.5849 35.53C39.7077 35.6232 39.8797 35.6698 40.1007 35.6698C40.3113 35.6698 40.492 35.6232 40.6429 35.53C40.7973 35.4333 40.9096 35.2952 40.9798 35.1157L41.064 35.3694C40.9938 35.5489 40.871 35.6922 40.6955 35.7992C40.5236 35.9062 40.306 35.9597 40.0428 35.9597Z" fill="#EBEBEB"/>
<path d="M36.5343 35.934V33.2154H36.9076V35.934H36.5343ZM36.7236 32.6148C36.6465 32.6148 36.5816 32.5889 36.5291 32.5371C36.4765 32.4853 36.4502 32.4232 36.4502 32.3507C36.4502 32.2782 36.4765 32.2178 36.5291 32.1695C36.5816 32.1177 36.6465 32.0918 36.7236 32.0918C36.8007 32.0918 36.8656 32.116 36.9181 32.1643C36.9707 32.2126 36.997 32.273 36.997 32.3455C36.997 32.4215 36.9707 32.4853 36.9181 32.5371C36.8691 32.5889 36.8042 32.6148 36.7236 32.6148Z" fill="#EBEBEB"/>
<path d="M33.1475 35.9339V33.2153H33.5054V33.9558L33.4685 33.8264C33.5457 33.6192 33.6756 33.4622 33.858 33.3552C34.0405 33.2447 34.2669 33.1895 34.5371 33.1895V33.5467C34.523 33.5467 34.509 33.5467 34.4949 33.5467C34.4809 33.5433 34.4669 33.5416 34.4528 33.5416C34.1616 33.5416 33.9335 33.6296 33.7686 33.8056C33.6036 33.9783 33.5212 34.2251 33.5212 34.5461V35.9339H33.1475Z" fill="#EBEBEB"/>
<path d="M30.5671 35.9603C30.3074 35.9603 30.1074 35.8913 29.967 35.7532C29.8267 35.6151 29.7565 35.42 29.7565 35.168V32.6152H30.1302V35.1473C30.1302 35.3061 30.1706 35.4287 30.2513 35.515C30.3355 35.6013 30.4548 35.6444 30.6092 35.6444C30.7741 35.6444 30.911 35.5978 31.0198 35.5046L31.1514 35.7687C31.0777 35.8343 30.9882 35.8826 30.8829 35.9137C30.7811 35.9448 30.6759 35.9603 30.5671 35.9603ZM29.2617 33.5214V33.2159H30.9724V33.5214H29.2617Z" fill="#EBEBEB"/>
<path d="M26.5493 35.9597C26.3212 35.9597 26.1054 35.9287 25.9018 35.8665C25.6983 35.8009 25.5387 35.7198 25.4229 35.6232L25.5913 35.3332C25.7036 35.416 25.8474 35.4885 26.0229 35.5507C26.1984 35.6094 26.3826 35.6387 26.5756 35.6387C26.8388 35.6387 27.0283 35.599 27.1441 35.5196C27.2599 35.4368 27.3178 35.328 27.3178 35.1934C27.3178 35.0933 27.2844 35.0156 27.2177 34.9604C27.1546 34.9017 27.0704 34.8585 26.9651 34.8309C26.8598 34.7998 26.7423 34.774 26.6124 34.7532C26.4826 34.7325 26.3528 34.7084 26.2229 34.6807C26.0966 34.6531 25.9808 34.6134 25.8755 34.5617C25.7703 34.5064 25.6843 34.4322 25.6176 34.339C25.5544 34.2458 25.5229 34.1215 25.5229 33.9662C25.5229 33.8177 25.565 33.6848 25.6492 33.5675C25.7334 33.4501 25.8562 33.3586 26.0176 33.293C26.1826 33.224 26.3826 33.1895 26.6177 33.1895C26.7967 33.1895 26.9756 33.2136 27.1546 33.2619C27.3335 33.3068 27.4809 33.3672 27.5967 33.4432L27.4335 33.7383C27.3107 33.6555 27.1791 33.5968 27.0388 33.5623C26.8984 33.5243 26.7581 33.5053 26.6177 33.5053C26.3685 33.5053 26.1843 33.5485 26.065 33.6348C25.9492 33.7176 25.8913 33.8246 25.8913 33.9558C25.8913 34.0594 25.9229 34.1405 25.9861 34.1992C26.0527 34.2579 26.1387 34.3045 26.244 34.339C26.3528 34.3701 26.4703 34.396 26.5966 34.4167C26.7265 34.4374 26.8546 34.4633 26.9809 34.4943C27.1107 34.522 27.2283 34.5617 27.3335 34.6134C27.4423 34.6618 27.5283 34.7325 27.5915 34.8257C27.6581 34.9155 27.6915 35.0346 27.6915 35.183C27.6915 35.3418 27.6458 35.4799 27.5546 35.5973C27.4669 35.7112 27.3371 35.8009 27.1651 35.8665C26.9967 35.9287 26.7914 35.9597 26.5493 35.9597Z" fill="#EBEBEB"/>
<path d="M22.0972 35.9592C21.8621 35.9592 21.6568 35.9161 21.4814 35.8298C21.3059 35.7435 21.1691 35.614 21.0708 35.4414C20.9761 35.2688 20.9287 35.0531 20.9287 34.7942V33.2148H21.3024V34.7527C21.3024 35.0427 21.3744 35.2619 21.5182 35.4104C21.6656 35.5554 21.8709 35.6278 22.1341 35.6278C22.3271 35.6278 22.4938 35.5899 22.6341 35.5139C22.778 35.4345 22.8868 35.3206 22.9605 35.1722C23.0377 35.0237 23.0763 34.8459 23.0763 34.6388V33.2148H23.45V35.9334H23.0921V35.1877L23.15 35.3223C23.0622 35.5226 22.9254 35.6796 22.7394 35.7935C22.5569 35.904 22.3429 35.9592 22.0972 35.9592Z" fill="#EBEBEB"/>
<path d="M17.1701 35.9598C16.9069 35.9598 16.67 35.9012 16.4595 35.7838C16.2525 35.6664 16.0893 35.5042 15.97 35.297C15.8507 35.0865 15.791 34.8448 15.791 34.5721C15.791 34.2959 15.8507 34.0543 15.97 33.8472C16.0893 33.6401 16.2525 33.4795 16.4595 33.3656C16.67 33.2482 16.9069 33.1896 17.1701 33.1896C17.4122 33.1896 17.628 33.2431 17.8175 33.3501C18.0105 33.4571 18.1631 33.6142 18.2754 33.8213C18.3912 34.025 18.4491 34.2752 18.4491 34.5721C18.4491 34.8655 18.393 35.1158 18.2807 35.3229C18.1684 35.5301 18.0158 35.6889 17.8228 35.7993C17.6333 35.9063 17.4157 35.9598 17.1701 35.9598ZM17.1964 35.6336C17.3929 35.6336 17.5684 35.5905 17.7228 35.5042C17.8807 35.4144 18.0035 35.2901 18.0912 35.1313C18.1824 34.9691 18.2281 34.7827 18.2281 34.5721C18.2281 34.3581 18.1824 34.1717 18.0912 34.0129C18.0035 33.8541 17.8807 33.7315 17.7228 33.6452C17.5684 33.5555 17.3929 33.5106 17.1964 33.5106C17.0034 33.5106 16.8297 33.5555 16.6753 33.6452C16.5209 33.7315 16.3981 33.8541 16.3068 34.0129C16.2156 34.1717 16.17 34.3581 16.17 34.5721C16.17 34.7827 16.2156 34.9691 16.3068 35.1313C16.3981 35.2901 16.5209 35.4144 16.6753 35.5042C16.8297 35.5905 17.0034 35.6336 17.1964 35.6336ZM18.2386 35.934V35.1158L18.2754 34.5669L18.2228 34.0181V32.0918H18.5965V35.934H18.2386Z" fill="#EBEBEB"/>
<path d="M12.6079 33.1895C12.8325 33.1895 13.029 33.2326 13.1974 33.3189C13.3694 33.4018 13.5027 33.5295 13.5975 33.7021C13.6957 33.8747 13.7449 34.0922 13.7449 34.3545V35.9339H13.3711V34.3908C13.3711 34.1043 13.2974 33.8885 13.1501 33.7435C13.0062 33.5951 12.8027 33.5209 12.5395 33.5209C12.343 33.5209 12.171 33.5606 12.0237 33.6399C11.8798 33.7159 11.7675 33.8281 11.6868 33.9765C11.6096 34.1215 11.571 34.2976 11.571 34.5047V35.9339H11.1973V33.2153H11.5552V33.961L11.4973 33.8212C11.585 33.6244 11.7254 33.4708 11.9184 33.3603C12.1114 33.2464 12.3412 33.1895 12.6079 33.1895Z" fill="#EBEBEB"/>
<path d="M8.37305 35.9342V32.3096H8.76212V35.9342H8.37305Z" fill="#EBEBEB"/>
</svg>
