<svg width="387" height="102" viewBox="0 0 387 102" fill="none" xmlns="http://www.w3.org/2000/svg">
<mask id="mask0_39_17812" style="mask-type:alpha" maskUnits="userSpaceOnUse" x="0" y="0" width="387" height="102">
<path d="M30.2797 13.0825V1.54534C30.2797 0.691871 29.5842 -0.00355232 28.7315 0.0323093C10.3343 0.806022 0.953125 15.3107 0.953125 25.6976V76.6973C0.953125 87.7789 13.9129 101.077 28.7348 101.954C29.5868 102.004 30.2797 101.308 30.2797 100.454V89.3124C30.2797 88.4589 29.5851 87.7755 28.7387 87.6655C22.1556 86.8096 16.0141 80.7324 16.0127 76.6973C16.0112 72.3485 16.0127 30.0463 16.0127 25.6976C16.0127 21.6226 21.2322 15.4649 28.7367 14.7055C29.5858 14.6196 30.2797 13.936 30.2797 13.0825Z" fill="white"/>
<path d="M42.9625 88.9175L42.9625 100.455C42.9625 101.308 43.658 102.004 44.5107 101.968C62.9079 101.194 72.2891 86.6893 72.2891 76.3024L72.2891 25.3027C72.2891 14.2211 59.3292 0.923377 44.5074 0.0462927C43.6554 -0.00412237 42.9625 0.692334 42.9625 1.5458L42.9625 12.6876C42.9625 13.5411 43.6571 14.2245 44.5035 14.3345C51.0866 15.1904 57.228 21.2676 57.2295 25.3027C57.231 29.6515 57.2295 71.9537 57.2295 76.3024C57.2295 80.3774 52.01 86.5351 44.5055 87.2945C43.6564 87.3804 42.9625 88.064 42.9625 88.9175Z" fill="white"/>
<path d="M136.788 0H125.687C124.498 0 123.755 1.28545 124.347 2.31568L181.223 101.225C181.499 101.704 182.01 102 182.563 102H194.048C195.239 102 195.982 100.71 195.385 99.6799L138.125 0.771095C137.849 0.293853 137.339 0 136.788 0Z" fill="white"/>
<path d="M146.155 65.5907L151.895 75.5369C152.168 76.0101 152.171 76.5924 151.903 77.0683L138.512 100.816C138.238 101.302 137.724 101.603 137.166 101.603H125.665C124.48 101.603 123.736 100.324 124.322 99.2937L143.473 65.5995C144.063 64.5612 145.558 64.5563 146.155 65.5907Z" fill="white"/>
<path d="M182.543 0H193.686C194.868 0 195.612 1.27292 195.032 2.30305L175.847 36.4059C175.263 37.4439 173.774 37.459 173.169 36.4331L167.07 26.0908C166.784 25.6045 166.785 25.0006 167.073 24.5155L181.215 0.754969C181.494 0.28684 181.999 0 182.543 0Z" fill="white"/>
<rect x="246.664" width="15.8522" height="102" rx="1.54534" fill="white"/>
<rect x="341.773" y="28.4648" width="15.8522" height="73.5346" rx="1.54534" fill="white"/>
<rect x="313.242" width="73.7127" height="15.8139" rx="1.54534" fill="white"/>
</mask>
<g mask="url(#mask0_39_17812)">
<g filter="url(#filter0_f_39_17812)">
<path d="M-24.6418 -36.7087C-65.973 11.9531 -12.8058 56.7488 -37.1185 112.619C-58.531 161.825 -127.574 173.454 -126.562 224.573C-125.045 301.236 -3.01063 320.227 80.883 289.706C173.831 255.892 222.24 154.586 177.624 81.9223C153.815 43.1468 77.7203 61.0273 73.3293 16.0987C68.3908 -34.4305 181.249 -25.6071 188.031 -76.7929C197.682 -149.634 27.0144 -97.5266 -24.6418 -36.7087Z" fill="#E50E8A"/>
<path d="M202.963 -80.025C171.217 -115.711 104.574 -78.6594 58.6314 -101.897C18.1692 -122.363 34.8542 -176.232 -16.7211 -179.671C-94.0694 -184.829 -163.138 -92.8746 -167.008 -26.067C-171.296 47.9509 -89.7664 93.4008 1.25985 65.1999C49.8341 50.151 63.1554 -9.63799 109.922 -9.29905C162.519 -8.91788 107.39 76.8429 155.836 86.2601C224.777 99.6613 242.64 -35.4247 202.963 -80.025Z" fill="#0047FF"/>
<path d="M220.852 -176.826C166.204 -174.188 143.464 -134.326 87.7137 -121.8C38.6133 -110.769 7.67201 -134.419 -36.3078 -113.415C-102.265 -81.9137 -81.8349 -24.1832 -30.0386 -2.04703C27.3479 22.4782 129.743 1.5413 179.21 -46.0361C205.606 -71.4249 167.118 -95.4516 204.714 -115.35C246.996 -137.729 273.462 -87.8588 319.855 -105.692C385.877 -131.07 289.153 -180.123 220.852 -176.826Z" fill="#FF8300"/>
<path d="M345.423 -121.424C315.18 -144.043 256.527 -117.862 213.986 -131.907C176.52 -144.276 189.278 -180.169 142.5 -181.035C72.3454 -182.335 13.8717 -119.967 13.2582 -75.9092C12.5785 -27.096 88.2534 0.59898 169.333 -20.4189C212.6 -31.6346 222.061 -71.331 264.358 -72.374C311.928 -73.547 265.79 -15.6317 309.997 -10.7475C372.906 -3.79698 383.222 -93.1551 345.423 -121.424Z" fill="#8C00FF"/>
<path d="M287.954 118.229C316.055 95.814 286.913 79.5502 305.221 54.923C321.345 33.2335 363.742 25.0417 366.467 3.62363C370.553 -28.4975 298.196 -30.6247 245.609 -13.788C187.348 4.86593 151.544 49.7277 173.711 78.104C185.539 93.2464 232.598 82.0914 232.315 100.748C231.996 121.731 164.509 123.433 157.08 145.253C146.507 176.304 252.834 146.244 287.954 118.229Z" fill="#FF000A"/>
<path d="M81.1063 172.133C130.615 160.274 164.71 95.9401 217.487 74.8117C263.968 56.2036 281.648 96.3827 325.85 69.5016C392.139 29.1875 387.183 -20.2934 345.945 -31.6748C300.256 -44.2845 203.801 -7.37816 148.556 44.85C119.076 72.7204 147.971 88.1357 109.737 112.899C66.737 140.749 54.5665 99.5276 8.93722 123.914C-55.9965 158.617 19.2298 186.955 81.1063 172.133Z" fill="#9BFF00"/>
<path d="M432.311 79.8681C466.871 48.964 430.721 11.0537 453.686 -24.359C473.912 -55.5476 524.905 -63.1104 529.119 -95.4412C535.438 -143.928 449.131 -155.574 385.583 -136.017C315.176 -114.35 270.412 -50.1256 295.61 -4.29756C309.056 20.1576 381.375 11.8177 380.201 40.2231C378.881 72.1695 228.895 53.4373 219.046 85.8342C205.029 131.937 389.118 118.492 432.311 79.8681Z" fill="#00B3FF"/>
</g>
</g>
<defs>
<filter id="filter0_f_39_17812" x="-198.077" y="-211.961" width="758.431" height="546.454" filterUnits="userSpaceOnUse" color-interpolation-filters="sRGB">
<feFlood flood-opacity="0" result="BackgroundImageFix"/>
<feBlend mode="normal" in="SourceGraphic" in2="BackgroundImageFix" result="shape"/>
<feGaussianBlur stdDeviation="15.4534" result="effect1_foregroundBlur_39_17812"/>
</filter>
</defs>
</svg>
