<svg width="387" height="102" viewBox="0 0 387 102" fill="none" xmlns="http://www.w3.org/2000/svg">
<mask id="mask0_39_17774" style="mask-type:alpha" maskUnits="userSpaceOnUse" x="0" y="0" width="387" height="102">
<path d="M30.2405 13.0825V1.54534C30.2405 0.691871 29.545 -0.00355234 28.6923 0.0323096C10.2952 0.806026 0.914062 15.3107 0.914062 25.6976V76.6973C0.914062 87.7789 13.8738 101.077 28.6957 101.954C29.5476 102.004 30.2405 101.308 30.2405 100.454V89.3124C30.2405 88.4589 29.5459 87.7755 28.6995 87.6655C22.1164 86.8096 15.975 80.7324 15.9736 76.6973C15.9721 72.3485 15.9736 30.0463 15.9736 25.6976C15.9736 21.6226 21.1931 15.4649 28.6975 14.7055C29.5467 14.6196 30.2405 13.936 30.2405 13.0825Z" fill="white"/>
<path d="M42.9236 88.9175L42.9236 100.455C42.9236 101.308 43.6191 102.004 44.4718 101.968C62.8689 101.194 72.25 86.6893 72.25 76.3024L72.25 25.3027C72.25 14.2211 59.2902 0.923384 44.4684 0.0462927C43.6164 -0.00412237 42.9236 0.692334 42.9236 1.5458L42.9236 12.6876C42.9236 13.5411 43.6182 14.2245 44.4645 14.3345C51.0476 15.1904 57.189 21.2676 57.1905 25.3027C57.192 29.6515 57.1905 71.9537 57.1905 76.3024C57.1905 80.3774 51.971 86.5351 44.4665 87.2945C43.6174 87.3804 42.9236 88.064 42.9236 88.9175Z" fill="white"/>
<path d="M136.741 0H125.64C124.452 0 123.708 1.28546 124.3 2.31568L181.177 101.225C181.453 101.704 181.964 102 182.517 102H194.002C195.193 102 195.936 100.71 195.34 99.6799L138.079 0.771088C137.802 0.29385 137.293 0 136.741 0Z" fill="white"/>
<path d="M146.116 65.5907L151.856 75.5369C152.129 76.0101 152.132 76.5924 151.864 77.0683L138.473 100.816C138.199 101.302 137.685 101.603 137.127 101.603H125.626C124.441 101.603 123.697 100.324 124.283 99.2937L143.434 65.5996C144.024 64.5612 145.519 64.5563 146.116 65.5907Z" fill="white"/>
<path d="M182.504 0H193.647C194.829 0 195.573 1.27291 194.993 2.30304L175.808 36.4059C175.224 37.4438 173.735 37.459 173.13 36.4331L167.031 26.0908C166.745 25.6045 166.746 25.0006 167.035 24.5155L181.176 0.754971C181.455 0.286841 181.96 0 182.504 0Z" fill="white"/>
<rect x="246.633" width="15.8521" height="102" rx="1.54534" fill="white"/>
<rect x="341.742" y="28.4648" width="15.8521" height="73.5346" rx="1.54534" fill="white"/>
<rect x="313.203" width="73.7136" height="15.8139" rx="1.54534" fill="white"/>
</mask>
<g mask="url(#mask0_39_17774)">
<g filter="url(#filter0_f_39_17774)">
<path d="M104.063 -203.359C55.402 -209.03 67.1666 -164.124 25.6458 -157.919C-10.9222 -152.454 -59.2381 -186.323 -82.8065 -167.865C-118.153 -140.183 -51.4711 -66.4691 14.9955 -31.0541C88.6357 8.18305 166.604 -0.692009 173.332 -50.6584C176.922 -77.3219 121.275 -112.878 139.818 -131.025C160.672 -151.435 226.477 -86.324 254.91 -100.523C295.372 -120.729 164.881 -196.27 104.063 -203.359Z" fill="#E50E8A"/>
<path d="M236.049 -31.2823C231.697 -68.7289 172.286 -93.1514 153.233 -133.596C136.452 -169.216 171.35 -184.683 139.791 -219.125C92.4624 -270.779 6.84174 -270.172 -25.6408 -240.299C-61.6291 -207.201 -29.7088 -133.39 41.3781 -89.1881C79.3121 -65.6006 114.709 -86.0703 144.574 -56.1844C178.161 -22.5729 104.268 -16.1036 131.134 19.2428C169.365 69.5435 241.488 15.5188 236.049 -31.2823Z" fill="#0047FF"/>
<path d="M395.168 -92.3398C355.644 -130.065 310.99 -119.089 263.512 -150.808C221.697 -178.743 217.616 -217.405 172.068 -234.772C103.759 -260.819 75.8077 -206.312 95.3416 -153.603C116.984 -95.2054 202.679 -35.5251 271.34 -32.4724C307.979 -30.8435 298.978 -75.2248 339.328 -61.7147C384.708 -46.5204 366.63 6.94427 411.531 28.2408C475.429 58.5474 444.566 -45.1899 395.168 -92.3398Z" fill="#FF8300"/>
<path d="M448.444 29.1285C450.119 -6.47509 395.188 -24.7106 382.783 -61.8998C371.859 -94.6529 408.89 -112.592 383.142 -142.911C344.528 -188.381 259.641 -180.253 222.7 -148.682C181.771 -113.703 201.585 -45.5819 264.917 -9.36658C298.713 9.95895 337.038 -12.832 361.836 13.2575C389.725 42.5993 315.516 55.3276 336.472 86.929C366.293 131.9 446.35 73.6262 448.444 29.1285Z" fill="#8C00FF"/>
<path d="M23.3513 229.499C96.3716 229.167 141.025 151.173 206.385 131.719C263.948 114.586 328.641 163.269 369.871 126.303C431.705 70.8642 349.879 -43.1352 257.792 -90.7044C155.766 -143.408 33.8012 -111.698 9.67088 -23.5661C-3.20577 23.464 -32.2327 -90.8015 -65.6742 -55.4255C-103.284 -15.6397 -101.895 18.6065 -149.403 49.1969C-217.012 92.7293 -67.9102 229.914 23.3513 229.499Z" fill="#FF000A"/>
<path d="M-127.431 17.9842C-82.5373 71.9595 -78.8719 -37.3051 -29.9532 4.61548C13.1302 41.5355 77.3798 115.141 119.498 133.345C182.664 160.647 184.506 61.9998 149.77 -22.082C111.285 -115.239 22.0936 -194.997 -32.8772 -183.463C-62.2112 -177.308 -38.8032 -104.701 -75.4243 -117.667C-116.611 -132.249 -122.128 -226.742 -165.187 -251.724C-226.462 -287.276 -183.54 -49.4748 -127.431 17.9842Z" fill="#9BFF00"/>
<path d="M338.521 199.141C390.265 213.628 374.677 172.492 418.048 175.305C456.245 177.783 509.619 216.579 533.181 205.264C568.518 188.296 492.949 111.438 420.314 67.732C339.841 19.3084 277.413 89.1681 254.636 53.4932C213.603 -10.7773 217.217 32.2282 198.935 44.264C178.374 57.8 172.088 67.732 172.088 80.5319C172.088 119.842 273.85 181.035 338.521 199.141Z" fill="#00B3FF"/>
</g>
</g>
<defs>
<filter id="filter0_f_39_17774" x="-226.045" y="-291.684" width="799.105" height="552.091" filterUnits="userSpaceOnUse" color-interpolation-filters="sRGB">
<feFlood flood-opacity="0" result="BackgroundImageFix"/>
<feBlend mode="normal" in="SourceGraphic" in2="BackgroundImageFix" result="shape"/>
<feGaussianBlur stdDeviation="15.4534" result="effect1_foregroundBlur_39_17774"/>
</filter>
</defs>
</svg>
