<svg width="387" height="102" viewBox="0 0 387 102" fill="none" xmlns="http://www.w3.org/2000/svg">
<mask id="mask0_39_17831" style="mask-type:alpha" maskUnits="userSpaceOnUse" x="0" y="0" width="387" height="102">
<path d="M30.2092 13.0825V1.54534C30.2092 0.691871 29.5138 -0.00355234 28.661 0.0323096C10.2639 0.806026 0.882812 15.3107 0.882812 25.6976V76.6973C0.882812 87.7789 13.8426 101.077 28.6644 101.954C29.5164 102.004 30.2092 101.308 30.2092 100.454V89.3124C30.2092 88.4589 29.5146 87.7755 28.6683 87.6655C22.0852 86.8096 15.9438 80.7324 15.9423 76.6973C15.9408 72.3485 15.9423 30.0463 15.9423 25.6976C15.9423 21.6226 21.1618 15.4649 28.6663 14.7055C29.5154 14.6196 30.2092 13.936 30.2092 13.0825Z" fill="white"/>
<path d="M42.8923 88.9175L42.8923 100.455C42.8923 101.308 43.5878 102.004 44.4405 101.968C62.8376 101.194 72.2188 86.6893 72.2188 76.3024L72.2188 25.3027C72.2188 14.2211 59.259 0.923384 44.4372 0.0462927C43.5852 -0.00412237 42.8923 0.692334 42.8923 1.5458L42.8923 12.6876C42.8923 13.5411 43.5869 14.2245 44.4333 14.3345C51.0164 15.1904 57.1578 21.2676 57.1592 25.3027C57.1608 29.6515 57.1592 71.9537 57.1592 76.3024C57.1592 80.3774 51.9398 86.5351 44.4353 87.2945C43.5862 87.3804 42.8923 88.064 42.8923 88.9175Z" fill="white"/>
<path d="M136.71 0H125.609C124.42 0 123.677 1.28546 124.269 2.31568L181.146 101.225C181.421 101.704 181.932 102 182.485 102H193.971C195.161 102 195.905 100.71 195.308 99.6799L138.047 0.771088C137.771 0.29385 137.261 0 136.71 0Z" fill="white"/>
<path d="M146.085 65.5907L151.825 75.5369C152.098 76.0101 152.101 76.5924 151.833 77.0683L138.442 100.816C138.168 101.302 137.654 101.603 137.096 101.603H125.595C124.41 101.603 123.666 100.324 124.252 99.2937L143.403 65.5996C143.993 64.5612 145.488 64.5563 146.085 65.5907Z" fill="white"/>
<path d="M182.473 0H193.615C194.797 0 195.542 1.27291 194.962 2.30304L175.776 36.4059C175.193 37.4438 173.703 37.459 173.099 36.4331L167 26.0908C166.713 25.6045 166.715 25.0006 167.003 24.5155L181.145 0.754971C181.424 0.286841 181.928 0 182.473 0Z" fill="white"/>
<rect x="246.602" width="15.8521" height="102" rx="1.54534" fill="white"/>
<rect x="341.711" y="28.4648" width="15.8521" height="73.5346" rx="1.54534" fill="white"/>
<rect x="313.172" width="73.7136" height="15.8139" rx="1.54534" fill="white"/>
</mask>
<g mask="url(#mask0_39_17831)">
<g filter="url(#filter0_f_39_17831)">
<path d="M463.529 93.4407C508.299 73.6003 475.232 40.936 507.79 14.503C536.463 -8.77687 595.344 -4.17768 606.193 -32.0338C622.465 -73.8102 527.423 -103.365 452.135 -100.073C368.721 -96.4259 306.165 -49.18 325.905 -2.76648C336.438 22.0011 402.489 24.3265 395.805 49.3624C388.288 77.5193 298.397 54.9217 281.185 81.584C256.692 119.526 407.574 118.237 463.529 93.4407Z" fill="#E50E8A"/>
<path d="M262.034 12.4208C284.911 42.4323 348.512 33.2658 385.571 58.3886C418.209 80.5146 396.083 111.552 440.836 125.157C507.954 145.561 581.319 101.541 594.007 59.3345C608.064 12.5722 542.885 -34.7255 459.131 -36.6477C414.438 -37.6734 394.438 -2.07716 353.47 -12.6221C307.396 -24.4816 367.674 -67.5868 326.497 -84.354C267.899 -108.215 233.441 -25.0879 262.034 12.4208Z" fill="#0047FF"/>
<path d="M-27.4874 254.806C35.6264 267.651 185.129 133.493 253.526 135.681C313.765 137.607 339.243 172.791 397.736 162.169C485.46 146.24 485.815 76.2611 436.044 36.7394C380.902 -7.04777 256.123 -13.362 180.562 25.1723C140.241 45.7353 174.133 83.5146 123.338 94.7506C66.2107 107.387 -7.11245 -50.8612 -67.0526 -44.4567C-152.352 -35.3426 -106.368 238.752 -27.4874 254.806Z" fill="#FF8300"/>
<path d="M51.6976 58.5028C74.575 88.5143 138.176 79.3479 175.235 104.471C207.874 126.597 185.747 157.634 230.5 171.239C297.618 191.643 370.983 147.623 383.671 105.417C397.728 58.6542 332.549 11.3565 248.795 9.43437C204.102 8.40866 184.102 44.0049 143.134 33.4599C97.0596 21.6005 157.338 -21.5048 116.161 -38.2719C57.563 -62.1328 23.1051 20.9942 51.6976 58.5028Z" fill="#8C00FF"/>
<path d="M210.717 -149.93C165.38 -130.506 197.529 -97.553 164.221 -71.4269C134.885 -48.4173 76.127 -53.5509 64.4893 -25.8045C47.0359 15.8073 141.256 46.2162 216.647 43.6112C300.175 40.725 364.074 -5.93268 345.643 -52.5078C335.807 -77.3616 269.813 -80.2875 277.205 -105.253C285.518 -133.33 374.783 -109.923 392.75 -136.418C418.318 -174.122 267.379 -174.208 210.717 -149.93Z" fill="#FF000A"/>
<path d="M406.22 -139.25C351.412 -149.152 323.341 -115.572 266.091 -116.11C215.671 -116.583 188.054 -146.644 141.381 -136.25C71.385 -120.662 83.8997 -59.8547 132.501 -26.5086C186.348 10.4364 291.215 13.4357 346.964 -21.5501C376.714 -40.2196 341.628 -72.3683 381.79 -83.1428C426.959 -95.2605 446.554 -40.7213 495.202 -47.4803C564.431 -57.0989 474.721 -126.873 406.22 -139.25Z" fill="#9BFF00"/>
<path d="M5.55252 -183.401C-51.0015 -162.751 -15.1092 -124.093 -57.7272 -95.3983C-95.2615 -70.1267 -165.826 -77.9363 -182.395 -46.673C-207.242 0.213247 -96.0895 38.0334 -4.72104 37.5686C96.5086 37.0536 177.955 -14.0441 159.872 -67.7851C150.222 -96.4628 70.7116 -101.995 81.897 -130.227C94.4767 -161.978 200.271 -132.309 224.378 -161.935C258.683 -204.094 76.2342 -209.211 5.55252 -183.401Z" fill="#00B3FF"/>
</g>
</g>
<defs>
<filter id="filter0_f_39_17831" x="-216.835" y="-230.043" width="855.774" height="516.624" filterUnits="userSpaceOnUse" color-interpolation-filters="sRGB">
<feFlood flood-opacity="0" result="BackgroundImageFix"/>
<feBlend mode="normal" in="SourceGraphic" in2="BackgroundImageFix" result="shape"/>
<feGaussianBlur stdDeviation="15.4534" result="effect1_foregroundBlur_39_17831"/>
</filter>
</defs>
</svg>
